<?xml version="1.0" encoding="UTF-8" standalone="no"?>
<!-- Generator: Adobe Illustrator 19.1.0, SVG Export Plug-In . SVG Version: 6.00 Build 0)  -->

<svg
   xmlns:dc="http://purl.org/dc/elements/1.1/"
   xmlns:cc="http://creativecommons.org/ns#"
   xmlns:rdf="http://www.w3.org/1999/02/22-rdf-syntax-ns#"
   xmlns:svg="http://www.w3.org/2000/svg"
   xmlns="http://www.w3.org/2000/svg"
   xmlns:sodipodi="http://sodipodi.sourceforge.net/DTD/sodipodi-0.dtd"
   xmlns:inkscape="http://www.inkscape.org/namespaces/inkscape"
   version="1.1"
   id="Layer_1"
   x="0px"
   y="0px"
   viewBox="0 0 48 48"
   style="enable-background:new 0 0 48 48;"
   xml:space="preserve"
   inkscape:version="0.48.4 r9939"
   width="100%"
   height="100%"
   sodipodi:docname="glyphicons-90-building.svg"><metadata
     id="metadata10"><rdf:RDF><cc:Work
         rdf:about=""><dc:format>image/svg+xml</dc:format><dc:type
           rdf:resource="http://purl.org/dc/dcmitype/StillImage" /><dc:title></dc:title></cc:Work></rdf:RDF></metadata><defs
     id="defs8" /><sodipodi:namedview
     pagecolor="#ffffff"
     bordercolor="#666666"
     borderopacity="1"
     objecttolerance="10"
     gridtolerance="10"
     guidetolerance="10"
     inkscape:pageopacity="0"
     inkscape:pageshadow="2"
     inkscape:window-width="640"
     inkscape:window-height="480"
     id="namedview6"
     showgrid="false"
     inkscape:zoom="4.9166667"
     inkscape:cx="24"
     inkscape:cy="24"
     inkscape:window-x="49"
     inkscape:window-y="34"
     inkscape:window-maximized="0"
     inkscape:current-layer="Layer_1" /><g
     id="building_2_"><path
       d="M27,32.25c0-0.138-0.112-0.25-0.25-0.25h-4.5C22.112,32,22,32.112,22,32.25V36h-9v-1c0-0.552,0.448-1,1-1h1V13   c0-0.552,0.448-1,1-1h17c0.552,0,1,0.448,1,1v21h1c0.552,0,1,0.448,1,1v1h-9V32.25z M20.75,28h-2.5C18.112,28,18,28.112,18,28.25   v1.5c0,0.138,0.112,0.25,0.25,0.25h2.5c0.138,0,0.25-0.112,0.25-0.25v-1.5C21,28.112,20.888,28,20.75,28z M20.75,24h-2.5   C18.112,24,18,24.112,18,24.25v1.5c0,0.138,0.112,0.25,0.25,0.25h2.5c0.138,0,0.25-0.112,0.25-0.25v-1.5   C21,24.112,20.888,24,20.75,24z M20.75,20h-2.5C18.112,20,18,20.112,18,20.25v1.5c0,0.138,0.112,0.25,0.25,0.25h2.5   c0.138,0,0.25-0.112,0.25-0.25v-1.5C21,20.112,20.888,20,20.75,20z M20.75,16h-2.5C18.112,16,18,16.112,18,16.25v1.5   c0,0.138,0.112,0.25,0.25,0.25h2.5c0.138,0,0.25-0.112,0.25-0.25v-1.5C21,16.112,20.888,16,20.75,16z M25.75,28h-2.5   C23.112,28,23,28.112,23,28.25v1.5c0,0.138,0.112,0.25,0.25,0.25h2.5c0.138,0,0.25-0.112,0.25-0.25v-1.5   C26,28.112,25.888,28,25.75,28z M25.75,24h-2.5C23.112,24,23,24.112,23,24.25v1.5c0,0.138,0.112,0.25,0.25,0.25h2.5   c0.138,0,0.25-0.112,0.25-0.25v-1.5C26,24.112,25.888,24,25.75,24z M25.75,20h-2.5C23.112,20,23,20.112,23,20.25v1.5   c0,0.138,0.112,0.25,0.25,0.25h2.5c0.138,0,0.25-0.112,0.25-0.25v-1.5C26,20.112,25.888,20,25.75,20z M25.75,16h-2.5   C23.112,16,23,16.112,23,16.25v1.5c0,0.138,0.112,0.25,0.25,0.25h2.5c0.138,0,0.25-0.112,0.25-0.25v-1.5   C26,16.112,25.888,16,25.75,16z M30.75,28h-2.5C28.112,28,28,28.112,28,28.25v1.5c0,0.138,0.112,0.25,0.25,0.25h2.5   c0.138,0,0.25-0.112,0.25-0.25v-1.5C31,28.112,30.888,28,30.75,28z M30.75,24h-2.5C28.112,24,28,24.112,28,24.25v1.5   c0,0.138,0.112,0.25,0.25,0.25h2.5c0.138,0,0.25-0.112,0.25-0.25v-1.5C31,24.112,30.888,24,30.75,24z M30.75,20h-2.5   C28.112,20,28,20.112,28,20.25v1.5c0,0.138,0.112,0.25,0.25,0.25h2.5c0.138,0,0.25-0.112,0.25-0.25v-1.5   C31,20.112,30.888,20,30.75,20z M30.75,16h-2.5C28.112,16,28,16.112,28,16.25v1.5c0,0.138,0.112,0.25,0.25,0.25h2.5   c0.138,0,0.25-0.112,0.25-0.25v-1.5C31,16.112,30.888,16,30.75,16z"
       id="path4" /></g></svg>