<?xml version="1.0" encoding="UTF-8" standalone="no"?>
<!-- Generator: Adobe Illustrator 19.1.0, SVG Export Plug-In . SVG Version: 6.00 Build 0)  -->

<svg
   xmlns:dc="http://purl.org/dc/elements/1.1/"
   xmlns:cc="http://creativecommons.org/ns#"
   xmlns:rdf="http://www.w3.org/1999/02/22-rdf-syntax-ns#"
   xmlns:svg="http://www.w3.org/2000/svg"
   xmlns="http://www.w3.org/2000/svg"
   xmlns:sodipodi="http://sodipodi.sourceforge.net/DTD/sodipodi-0.dtd"
   xmlns:inkscape="http://www.inkscape.org/namespaces/inkscape"
   version="1.1"
   id="Layer_1"
   x="0px"
   y="0px"
   viewBox="0 0 48 48"
   style="enable-background:new 0 0 48 48;"
   xml:space="preserve"
   inkscape:version="0.48.4 r9939"
   width="100%"
   height="100%"
   sodipodi:docname="glyphicons-243-map-marker.svg"><metadata
     id="metadata9"><rdf:RDF><cc:Work
         rdf:about=""><dc:format>image/svg+xml</dc:format><dc:type
           rdf:resource="http://purl.org/dc/dcmitype/StillImage" /><dc:title></dc:title></cc:Work></rdf:RDF></metadata><defs
     id="defs7" /><sodipodi:namedview
     pagecolor="#ffffff"
     bordercolor="#666666"
     borderopacity="1"
     objecttolerance="10"
     gridtolerance="10"
     guidetolerance="10"
     inkscape:pageopacity="0"
     inkscape:pageshadow="2"
     inkscape:window-width="640"
     inkscape:window-height="480"
     id="namedview5"
     showgrid="false"
     inkscape:zoom="4.9166667"
     inkscape:cx="24"
     inkscape:cy="24"
     inkscape:window-x="1237"
     inkscape:window-y="95"
     inkscape:window-maximized="0"
     inkscape:current-layer="Layer_1" /><g
     id="map-marker_2_"><path
       id="map-marker_4_"
       d="M33.943,21.17c0,1.761-0.367,3.677-1.454,5.401c-3.276,5.087-7.422,9.756-7.422,9.756   s-4.767-4.505-7.812-9.848c-0.763-1.667-1.262-3.432-1.262-5.199c0-4.967,4.017-9.281,8.975-9.281   C29.926,12,33.943,16.204,33.943,21.17z M30.415,20.807c0-2.967-2.403-5.367-5.366-5.367c-2.963,0-5.366,2.399-5.366,5.367   c0,2.965,2.403,5.365,5.366,5.365C28.012,26.172,30.415,23.772,30.415,20.807z" /></g></svg>